<svg xmlns="http://www.w3.org/2000/svg" height="464pt" version="1.1" viewBox="0 0 464 464" width="464pt">
<g id="surface1">
<path d="M 32 232 C 32.125 342.40625 121.59375 431.875 232 432 L 232 376 C 152.472656 376 88 311.527344 88 232 C 88 152.472656 152.472656 88 232 88 L 232 0 C 103.871094 0 0 103.871094 0 232 C 0 360.128906 103.871094 464 232 464 L 232 432 C 121.59375 431.875 32.125 342.40625 32 232 Z M 32 232 " style=" stroke:none;fill-rule:nonzero;fill:rgb(76.862745%,60.392157%,42.352941%);fill-opacity:1;" />
<path d="M 232 0 L 232 88 C 311.527344 88 376 152.472656 376 232 C 376 311.527344 311.527344 376 232 376 L 232 464 C 360.128906 464 464 360.128906 464 232 C 464 103.871094 360.128906 0 232 0 Z M 263.863281 429.464844 C 274.777344 427.710938 285.527344 425.054688 296 421.511719 C 285.527344 425.054688 274.777344 427.710938 263.863281 429.464844 Z M 263.863281 429.464844 " style=" stroke:none;fill-rule:nonzero;fill:rgb(81.568627%,68.235294%,53.72549%);fill-opacity:1;" />
<path d="M 88 232 C 88 311.527344 152.472656 376 232 376 L 232 352 C 165.726562 352 112 298.273438 112 232 C 112 165.726562 165.726562 112 232 112 L 232 88 C 152.472656 88 88 152.472656 88 232 Z M 88 232 " style=" stroke:none;fill-rule:nonzero;fill:rgb(54.509804%,36.862745%,23.529412%);fill-opacity:1;" />
<path d="M 169.761719 249.761719 C 154.601562 234.066406 154.816406 209.117188 170.246094 193.6875 C 185.675781 178.257812 210.625 178.042969 226.320312 193.199219 L 232 198.878906 L 232 112 C 165.726562 112 112 165.726562 112 232 C 112 298.273438 165.726562 352 232 352 L 232 312 Z M 169.761719 249.761719 " style=" stroke:none;fill-rule:nonzero;fill:rgb(66.27451%,48.627451%,31.372549%);fill-opacity:1;" />
<path d="M 352 232 C 351.925781 165.757812 298.242188 112.074219 232 112 L 232 198.878906 L 237.679688 193.199219 C 245.441406 185.441406 255.679688 189.519531 265.921875 189.519531 C 276.160156 189.519531 278.398438 193.441406 286.238281 201.199219 C 301.839844 216.800781 309.839844 234.160156 294.238281 249.761719 L 232 312 L 232 352 C 298.242188 351.925781 351.925781 298.242188 352 232 Z M 352 232 " style=" stroke:none;fill-rule:nonzero;fill:rgb(72.941176%,58.823529%,45.098039%);fill-opacity:1;" />
<path d="M 198.078125 181.519531 C 181.914062 181.523438 167.339844 191.257812 161.144531 206.1875 C 154.945312 221.117188 158.347656 238.3125 169.761719 249.761719 L 232 312 L 232 198.878906 L 226.320312 193.199219 C 218.832031 185.710938 208.671875 181.507812 198.078125 181.519531 Z M 198.078125 181.519531 " style=" stroke:none;fill-rule:nonzero;fill:rgb(45.882353%,29.803922%,16.078431%);fill-opacity:1;" />
<path d="M 294.238281 249.761719 C 309.398438 234.066406 309.183594 209.117188 293.753906 193.6875 C 278.324219 178.257812 253.375 178.042969 237.679688 193.199219 L 232 198.878906 L 232 312 Z M 294.238281 249.761719 " style=" stroke:none;fill-rule:nonzero;fill:rgb(56.862745%,43.921569%,32.941176%);fill-opacity:1;" />
<path d="M 232 440 C 117.179688 439.871094 24.128906 346.820312 24 232 C 24 227.582031 27.582031 224 32 224 C 36.417969 224 40 227.582031 40 232 C 40.125 337.988281 126.011719 423.875 232 424 C 236.417969 424 240 427.582031 240 432 C 240 436.417969 236.417969 440 232 440 Z M 232 440 " style=" stroke:none;fill-rule:nonzero;fill:rgb(86.27451%,76.078431%,65.490196%);fill-opacity:1;" />
<path d="M 263.855469 437.464844 C 259.675781 437.476562 256.191406 434.261719 255.859375 430.09375 C 255.53125 425.925781 258.46875 422.207031 262.601562 421.558594 C 273.0625 419.878906 283.367188 417.324219 293.40625 413.929688 C 297.605469 412.507812 302.15625 414.761719 303.574219 418.960938 C 304.996094 423.15625 302.742188 427.710938 298.542969 429.128906 C 287.65625 432.804688 276.480469 435.574219 265.136719 437.398438 C 264.710938 437.457031 264.285156 437.476562 263.855469 437.464844 Z M 263.855469 437.464844 " style=" stroke:none;fill-rule:nonzero;fill:rgb(86.27451%,76.078431%,65.490196%);fill-opacity:1;" />
<path d="M 424 240 L 376 240 C 371.582031 240 368 236.417969 368 232 C 368 227.582031 371.582031 224 376 224 L 424 224 C 428.417969 224 432 227.582031 432 232 C 432 236.417969 428.417969 240 424 240 Z M 424 240 " style=" stroke:none;fill-rule:nonzero;fill:rgb(63.529412%,49.411765%,38.823529%);fill-opacity:1;" />
<path d="M 352 232 C 351.925781 298.242188 298.242188 351.925781 232 352 L 232 376 C 311.527344 376 376 311.527344 376 232 C 376 152.472656 311.527344 88 232 88 L 232 112 C 298.242188 112.074219 351.925781 165.757812 352 232 Z M 352 232 " style=" stroke:none;fill-rule:nonzero;fill:rgb(63.529412%,49.411765%,38.823529%);fill-opacity:1;" />
</g>
</svg>