<svg id="Layer_1" data-name="Layer 1" xmlns="http://www.w3.org/2000/svg" width="28" height="28" viewBox="0 0 28 28"><g id="surface1"><path d="M1.93,14A12.09,12.09,0,0,0,14,26.07V22.69A8.69,8.69,0,0,1,14,5.31V0a14,14,0,0,0,0,28V26.07A12.09,12.09,0,0,1,1.93,14Z" style="fill:#c49a6c"/><path d="M14,0V5.31a8.69,8.69,0,0,1,0,17.38h0V28A14,14,0,0,0,14,0Zm1.92,25.92a11.73,11.73,0,0,0,1.94-.49A11.73,11.73,0,0,1,15.92,25.92Z" style="fill:#d0ae89"/><path d="M5.31,14A8.69,8.69,0,0,0,14,22.69h0V21.24A7.24,7.24,0,0,1,14,6.76V5.31A8.69,8.69,0,0,0,5.31,14Z" style="fill:#8b5e3c"/><path d="M10.27,15.07a2.41,2.41,0,0,1,3.25-3.56l.15.15L14,12V6.76a7.24,7.24,0,0,0,0,14.48V18.83Z" style="fill:#a97c50"/><path d="M14,18.83v2.41A7.24,7.24,0,0,0,14,6.76V12l.33-.34.15-.15a2.41,2.41,0,0,1,3.25,3.56Z" style="fill:#ba9673"/><path d="M17.73,15.07a2.41,2.41,0,0,0-3.25-3.56l-.15.15L14,12v6.83Z" style="fill:#917054"/><path d="M14,26.55A12.56,12.56,0,0,1,1.45,14a.47.47,0,0,1,.47-.49h0a.49.49,0,0,1,.49.49h0A11.57,11.57,0,0,0,14,25.58h0a.49.49,0,0,1,.49.49h0a.47.47,0,0,1-.48.48Z" style="fill:#dfc8af"/><path d="M15.92,26.39a.46.46,0,0,1-.48-.43.49.49,0,0,1,.41-.52A12,12,0,0,0,17.71,25a.49.49,0,1,1,.31.93,12.42,12.42,0,0,1-2,.49Z" style="fill:#dfc8af"/><path d="M25.58,14.49H22.69a.49.49,0,0,1-.27-.94.62.62,0,0,1,.27,0h2.89a.49.49,0,0,1,.28.94h0A.61.61,0,0,1,25.58,14.49Z" style="fill:#a27e63"/><path d="M21.24,14A7.25,7.25,0,0,1,14,21.24v1.45A8.69,8.69,0,0,0,14,5.31V6.76A7.25,7.25,0,0,1,21.24,14Z" style="fill:#a27e63"/><path d="M14,18.83V12l-.33-.34-.15-.15a2.41,2.41,0,0,0-3.25,3.56Z" style="fill:#4a3749"/></g></svg>
