<?xml version="1.0" standalone="no"?>
<!DOCTYPE svg PUBLIC "-//W3C//DTD SVG 20010904//EN"
 "http://www.w3.org/TR/2001/REC-SVG-20010904/DTD/svg10.dtd">
<svg version="1.0" xmlns="http://www.w3.org/2000/svg"
 width="700.000000pt" height="700.000000pt" viewBox="0 0 700.000000 700.000000"
 preserveAspectRatio="xMidYMid meet">
<metadata>
Created by potrace 1.11, written by Peter Selinger 2001-2013
</metadata>
<g transform="translate(0.000000,700.000000) scale(0.100000,-0.100000)"
fill="#000000" stroke="none">
<path d="M3278 6996 c-1 -2 -41 -6 -88 -10 -87 -7 -105 -9 -225 -27 -116 -18
-123 -19 -192 -35 -154 -34 -203 -47 -313 -81 -260 -79 -581 -227 -815 -374
-696 -437 -1220 -1109 -1475 -1889 -28 -87 -75 -256 -85 -311 -3 -13 -11 -58
-20 -99 -29 -147 -36 -200 -52 -370 -15 -164 -8 -592 12 -711 2 -13 6 -46 9
-74 9 -78 23 -156 51 -285 31 -142 110 -393 174 -554 64 -159 243 -502 298
-571 4 -6 34 -49 65 -95 52 -78 214 -286 263 -336 178 -188 262 -268 385 -371
81 -67 304 -233 314 -233 3 0 32 -18 65 -40 33 -22 63 -40 67 -40 4 0 15 -6
23 -14 29 -25 304 -161 431 -213 138 -57 348 -126 445 -149 6 -1 48 -11 95
-22 110 -27 201 -44 295 -57 22 -2 56 -7 75 -10 186 -26 697 -27 837 -1 17 3
104 16 148 21 248 32 669 165 954 302 108 52 272 141 305 166 6 4 58 38 116
76 236 153 506 389 682 595 34 39 64 73 68 76 4 3 44 55 90 115 151 199 277
405 383 628 26 53 47 99 47 102 0 2 11 28 24 57 57 127 151 421 182 573 17 81
54 301 59 350 4 33 9 71 11 85 9 46 11 524 4 605 -12 128 -21 202 -25 227 -3
13 -8 43 -11 68 -3 25 -9 61 -14 80 -5 19 -12 51 -15 70 -3 19 -19 87 -35 150
-193 770 -673 1479 -1321 1952 -205 149 -477 307 -659 382 -36 15 -80 34 -98
42 -110 50 -419 145 -587 179 -44 9 -89 19 -100 21 -11 2 -38 6 -60 9 -22 3
-51 7 -65 10 -13 2 -52 7 -86 11 -33 3 -74 8 -90 10 -33 5 -540 14 -546 10z
m507 -1341 c37 -5 226 -43 250 -49 755 -194 1354 -781 1558 -1526 20 -73 54
-243 61 -305 12 -99 18 -150 20 -152 1 -2 174 -3 383 -3 368 -1 382 -2 407
-21 73 -57 65 -165 -15 -206 -18 -10 -122 -13 -401 -13 -353 0 -378 -1 -379
-17 -1 -10 -3 -27 -4 -38 -1 -11 -5 -49 -9 -84 -15 -138 -52 -299 -105 -452
-133 -384 -364 -713 -692 -984 -49 -41 -216 -154 -295 -198 -203 -117 -519
-227 -729 -253 -22 -3 -65 -9 -95 -14 -70 -11 -423 -11 -481 0 -24 4 -64 11
-89 14 -285 38 -604 161 -865 334 -55 36 -114 77 -131 91 -17 14 -51 42 -75
61 -174 140 -385 397 -507 620 -50 93 -142 305 -142 330 0 10 -4 21 -9 24 -5
3 -11 16 -14 28 -2 13 -16 68 -30 123 -15 55 -29 116 -33 135 -44 241 -44 537
1 800 9 58 46 201 68 271 186 569 607 1044 1150 1298 199 94 452 165 662 187
33 4 62 8 64 11 7 6 430 -4 476 -12z m-3238 -2056 c46 -29 54 -54 58 -189 5
-150 15 -250 41 -395 7 -44 15 -91 18 -105 2 -14 9 -45 16 -70 7 -25 13 -52
15 -60 32 -165 183 -537 290 -714 19 -32 35 -60 35 -62 0 -11 162 -240 228
-323 81 -101 283 -309 367 -379 345 -285 685 -469 1085 -586 106 -31 290 -70
380 -81 8 -1 35 -5 60 -8 89 -13 157 -18 271 -21 136 -4 173 -18 196 -74 26
-64 4 -125 -57 -157 -40 -21 -313 -10 -505 20 -22 4 -51 8 -65 11 -75 11 -239
48 -335 75 -512 145 -977 419 -1360 803 -206 207 -367 416 -512 666 -46 80
-153 293 -153 306 0 3 -11 29 -24 58 -58 127 -163 485 -181 616 -3 25 -8 52
-10 60 -17 64 -35 253 -40 415 -4 115 -2 126 18 157 41 60 103 74 164 37z
m3994 -2865 c12 -10 28 -34 36 -52 18 -42 3 -103 -33 -131 -60 -47 -514 -161
-588 -147 -49 9 -89 57 -92 108 -4 73 39 120 122 132 51 8 81 14 102 20 9 3
33 8 52 11 42 7 224 59 260 74 37 16 116 7 141 -15z"/>
<path d="M3349 5306 c-2 -2 -35 -7 -72 -11 -37 -3 -78 -9 -90 -11 -12 -3 -33
-7 -47 -10 -552 -110 -1021 -477 -1273 -994 -42 -86 -108 -266 -121 -330 -3
-14 -10 -43 -15 -65 -5 -22 -13 -60 -17 -85 -3 -25 -9 -56 -11 -70 -10 -52
-11 -378 -2 -435 5 -33 11 -71 13 -85 31 -210 113 -435 231 -635 264 -449 753
-783 1260 -860 249 -38 500 -29 720 26 331 83 604 236 849 477 227 224 388
499 471 806 13 50 27 105 30 121 6 30 7 39 24 155 13 91 11 317 -4 430 -109
819 -738 1451 -1558 1564 -83 12 -379 21 -388 12z m-259 -1061 c59 -6 210 -63
235 -89 9 -9 20 -16 24 -16 3 0 38 -31 77 -68 l71 -68 74 69 c130 121 263 177
424 179 181 1 335 -66 457 -201 165 -183 200 -458 86 -676 -43 -81 -116 -159
-572 -615 l-466 -465 -485 485 c-267 267 -502 509 -522 539 -62 93 -91 184
-98 304 -18 310 211 583 523 626 58 8 74 7 172 -4z"/>
</g>
</svg>
